<?xml version="1.0" encoding="UTF-8" standalone="no"?>
<svg
   xmlns:dc="http://purl.org/dc/elements/1.1/"
   xmlns:cc="http://creativecommons.org/ns#"
   xmlns:rdf="http://www.w3.org/1999/02/22-rdf-syntax-ns#"
   xmlns:svg="http://www.w3.org/2000/svg"
   xmlns="http://www.w3.org/2000/svg"
   style="shape-rendering:geometricPrecision"
   height="125.3927"
   width="220.82904"
   xml:space="preserve"
   enable-background="new 229.08 149.82 385.82 163.38"
   viewBox="229.08 149.82 385.82903 163.3927"
   y="0px"
   x="0px"
   id="Camada_1"
   version="1.1"><metadata
   id="metadata21"><rdf:RDF><cc:Work
       rdf:about=""><dc:format>image/svg+xml</dc:format><dc:type
         rdf:resource="http://purl.org/dc/dcmitype/StillImage" /></cc:Work></rdf:RDF></metadata><defs
   id="defs19" />
<g
   transform="translate(0,0.01)"
   style="fill:#ec268f"
   id="g14">
	<path
   style="shape-rendering:geometricPrecision"
   id="path2"
   d="m 327.3,165.66 -27.61,6.4 20.47,81.49 c 3.99,15.93 -2.39,25.83 -15.49,28.86 -13.12,3.05 -23.5,-2.97 -27.49,-18.89 l -20.49,-81.49 -27.61,6.4 21.07,83.9 c 8.28,32.97 34.49,45.3 61.75,38.99 27.26,-6.31 44.74,-28.8 36.46,-61.75 z" />
	<path
   style="shape-rendering:geometricPrecision"
   id="path4"
   d="m 430.68,244.83 c -2.7,-18.83 -15.38,-34.07 -43.43,-30.37 -25.43,3.38 -34.44,22.26 -33.59,35.52 l 23.71,1.93 c -0.46,-6.91 3.65,-14.22 12.87,-15.43 8.37,-1.1 13.39,2.91 14.16,8.28 0.44,3.14 -0.77,5.75 -5.36,7.1 l -19.89,6.04 c -13.97,4.09 -23.96,14.84 -21.63,31.08 2.1,14.58 14.99,26.41 33.97,23.88 11.5,-1.52 19.12,-7.79 22.53,-16.15 0.91,6.27 2.06,9.51 2.35,10.22 l 23.86,-3.16 c -0.31,-0.91 -2.04,-6.89 -3.09,-14.08 z m -35.71,46.86 c -7.31,0.98 -10.94,-3.24 -11.63,-8.04 -0.93,-6.46 2.86,-9.78 8.3,-11.44 l 15.97,-4.96 0.58,4.05 c 2.06,14.24 -5.37,19.37 -13.22,20.39 z" />
	<path
   style="shape-rendering:geometricPrecision"
   id="path6"
   d="m 471.31,245.64 c -5.79,0.17 -9.72,-1.76 -9.95,-9.4 l -1.06,-34.65 17.05,-0.48 -0.77,-24.77 -17.05,0.48 -0.83,-27.01 -23.9,0.68 0.37,11.92 c 0.27,8.57 -3.94,15.2 -13.06,15.47 l -4.4,0.12 0.77,24.79 15.47,-0.44 1.22,39.68 c 0.56,18.44 12,29.5 30.1,29 8.43,-0.25 12.77,-2.41 13.81,-3.01 l -0.73,-23.48 c -1.6,0.41 -4.22,1.04 -7.04,1.1 z" />
	<path
   style="shape-rendering:geometricPrecision"
   id="path8"
   d="m 518.71,186.24 -23.77,-2.41 -1.31,11.86 c -0.95,8.53 -6.02,14.57 -15.11,13.64 l -4.38,-0.44 -2.72,24.65 15.39,1.56 -4.34,39.47 c -2.03,18.37 7.76,30.79 25.75,32.6 8.39,0.85 12.98,-0.73 14.1,-1.2 l 2.57,-23.36 c -1.62,0.21 -4.3,0.5 -7.1,0.21 -5.77,-0.58 -9.4,-3.01 -8.57,-10.61 l 3.8,-34.47 16.96,1.72 2.72,-24.65 -16.96,-1.72 z" />
	<path
   style="shape-rendering:geometricPrecision"
   id="path10"
   d="m 548.51,250.25 c -8.62,0 -15.63,7 -15.63,15.63 0,8.62 7,15.63 15.63,15.63 8.63,0 15.63,-7 15.63,-15.63 0,-8.64 -6.98,-15.63 -15.63,-15.63 z" />
	<path
   style="shape-rendering:geometricPrecision"
   id="path12"
   d="m 586.38,153.33 c -23.69,-9.01 -52.55,3.13 -55.12,33.97 0,0 24.6,2.62 24.62,2.57 3.03,-10.4 11.92,-16.01 21.51,-12.89 9.18,2.99 11.86,12.29 9.2,19.27 -1.77,4.67 -4.86,8.41 -10.61,10.32 l -10.88,3.67 c -12.19,4.19 -18.73,12.13 -21.95,20.55 -1.1,2.86 -1.99,7.06 -2.45,9.76 l 24.27,2.64 c 2.91,-10.42 13.43,-11.85 19.41,-13.33 14.3,-3.53 22.57,-11.92 28.01,-26.24 6.83,-17.9 0.29,-40.28 -26.01,-50.29 z" />
</g>
</svg>